<svg width="512" height="512" viewBox="0 0 512 512" xmlns="http://www.w3.org/2000/svg">

  <!-- Balloon body -->
  <ellipse cx="256" cy="220" rx="120" ry="145" fill="#EC4899"/>
  <ellipse cx="236" cy="180" rx="35" ry="45" fill="#F472B6" opacity="0.5"/>

  <!-- Balloon tie -->
  <path d="M 256 365 Q 256 380, 250 385 L 246 390" stroke="#BE185D" stroke-width="8" fill="none" stroke-linecap="round"/>

  <!-- Balloon string -->
  <path d="M 248 390 Q 235 420, 245 450 Q 255 480, 240 510" stroke="#CBD5E1" stroke-width="6" fill="none" stroke-linecap="round"/>

  <!-- Confetti pieces -->
  <rect x="140" y="80" width="15" height="15" fill="#FBBF24" transform="rotate(25 147 87)" rx="2"/>
  <circle cx="370" cy="120" r="8" fill="#10B981"/>
  <rect x="100" y="180" width="12" height="20" fill="#8B5CF6" transform="rotate(-15 106 190)" rx="2"/>
  <circle cx="390" cy="240" r="7" fill="#F59E0B"/>
  <rect x="130" y="300" width="18" height="10" fill="#3B82F6" transform="rotate(45 139 305)" rx="2"/>
  <circle cx="380" cy="330" r="9" fill="#EF4444"/>
</svg>
